<?xml version="1.0" encoding="UTF-8" standalone="no"?>
<svg
   xmlns:dc="http://purl.org/dc/elements/1.1/"
   xmlns:cc="http://creativecommons.org/ns#"
   xmlns:rdf="http://www.w3.org/1999/02/22-rdf-syntax-ns#"
   xmlns:svg="http://www.w3.org/2000/svg"
   xmlns="http://www.w3.org/2000/svg"
   xmlns:sodipodi="http://sodipodi.sourceforge.net/DTD/sodipodi-0.dtd"
   xmlns:inkscape="http://www.inkscape.org/namespaces/inkscape"
   id="Layer_1"
   enable-background="new 0 0 510.825 510.825"
   height="250"
   viewBox="0 0 399.08203 249.42627"
   width="400"
   version="1.1"
   sodipodi:docname="hills.svg"
   inkscape:version="1.0.1 (3bc2e813f5, 2020-09-07)">
  <metadata
     id="metadata29">
    <rdf:RDF>
      <cc:Work
         rdf:about="">
        <dc:format>image/svg+xml</dc:format>
        <dc:type
           rdf:resource="http://purl.org/dc/dcmitype/StillImage" />
        <dc:title></dc:title>
      </cc:Work>
    </rdf:RDF>
  </metadata>
  <defs
     id="defs27" />
  <sodipodi:namedview
     pagecolor="#ffffff"
     bordercolor="#666666"
     borderopacity="1"
     objecttolerance="10"
     gridtolerance="10"
     guidetolerance="10"
     inkscape:pageopacity="0"
     inkscape:pageshadow="2"
     inkscape:window-width="1871"
     inkscape:window-height="1014"
     id="namedview25"
     showgrid="false"
     inkscape:zoom="1.671875"
     inkscape:cx="255.85638"
     inkscape:cy="160.29939"
     inkscape:window-x="0"
     inkscape:window-y="27"
     inkscape:window-maximized="0"
     inkscape:current-layer="Layer_1" />
  <path
     d="m 397.76021,167.65191 c -12.44763,-26.937 -57.6543,-42.37449 -100.67459,-34.37938 l -52.67807,9.79004 c -6.59746,-2.57959 -1.5837,-0.95117 -111.38374,-32.22606 -23.80479,-6.78075 -51.937024,-2.67138 -68.46038,10 L 18.336649,156.28766 C 6.4776349,165.38287 0.00133602,176.75493 0.00133602,188.48588 v 60.9399 H 399.00701 c 0,-87.84809 0.53389,-77.91938 -1.2468,-81.77387 z"
     fill="#9bd65e"
     id="path2"
     style="stroke-width:0.617806" />
  <path
     d="m 238.44795,175.41118 c -39.77315,-21.22118 -50.54484,-8.28125 -135.06268,0 -45.553751,4.46338 -80.267807,9.22704 -103.37924384,12.91454 -0.00859859,1.80176 -0.005471829,57.15768 -0.005471829,61.10055 H 399.00622 v -48.89499 c -57.57926,-4.21875 -136.26648,-12.15917 -160.55827,-25.1201 z"
     fill="#91c656"
     id="path4"
     style="stroke-width:0.617806" />
  <g
     id="g881"
     transform="matrix(0.93002577,0,0,1.4889451,23.24304,3.8046976)">
    <ellipse
       cx="350.10294"
       cy="30.157366"
       fill="#f0a567"
       id="circle6"
       rx="48.266209"
       ry="30.149395"
       style="stroke-width:0.617806" />
    <path
       d="M 388.78954,12.126615 C 379.98771,4.7701742 365.93606,0.00797018 350.10294,0.00797018 c -39.28382,0 -61.67844,27.67918182 -39.55584,47.41647382 26.58761,-30.126446 58.2734,-23.003892 78.24244,-35.297829 z"
       fill="#fdaa6a"
       id="path8"
       style="stroke-width:0.617806" />
    <path
       d="M 363.29864,1.1612898 C 335.50254,-3.7659532 307.42972,7.517731 302.56839,24.950825 316.94523,6.9674384 351.05035,12.351224 363.29864,1.1612898 Z"
       fill="#fcbc80"
       id="path10"
       style="stroke-width:0.617806" />
  </g>
  <path
     d="m 138.11808,147.46149 c 38.66628,-2.63281 54.69014,-10.3413 60.7537,-17.86913 l -65.84719,-18.75585 c -23.80479,-6.78075 -51.937022,-2.67138 -68.460378,10 l -44.993275,34.50535 c 23.788379,-0.19873 66.823522,-4.3584 118.547143,-7.88037 z"
     fill="#c0f28b"
     id="path12"
     style="stroke-width:0.617806" />
  <path
     d="m 70.328391,116.05379 c 44.641519,-12.51659 13.248077,10.76318 38.892969,10.2456 8.98474,-0.18115 22.66431,-5.69921 36.14533,-12.92382 l -12.3421,-3.51562 c -21.22678,-6.04638 -45.886744,-3.42724 -62.696199,6.19384 z"
     fill="#d3f4ae"
     id="path14"
     style="stroke-width:0.617806" />
  <path
     d="m 297.08562,133.27253 -34.20987,6.35791 c 22.4853,8.69677 87.12557,25.46239 126.42267,15.9121 -18.54871,-19.20409 -56.1472,-28.97313 -92.2128,-22.27001 z"
     fill="#c0f28b"
     id="path16"
     style="stroke-width:0.617806" />
  <path
     d="M 135.92779,191.83011 C 43.182655,205.04593 73.84365,199.90189 0.00133602,214.18947 v 35.23631 H 311.46793 l -64.75987,-38.5532 C 217.22977,193.32377 175.63059,186.17289 135.92779,191.83011 Z"
     fill="#9bd65e"
     id="path18"
     style="stroke-width:0.617806" />
  <path
     d="m 0.00133602,226.68214 c 32.23922698,4.66797 73.30060298,6.91211 107.84659398,-3.13525 67.62632,-19.66844 63.48336,-22.25633 104.08511,-8.28124 15.73854,5.41698 37.02004,8.00878 56.95391,8.81103 L 246.70806,210.87307 C 217.22977,193.32377 175.63059,186.17289 135.92779,191.83011 43.182655,205.04593 73.84365,199.90189 0.00133602,214.18947 Z"
     fill="#c0f28b"
     id="path20"
     style="stroke-width:0.617806" />
  <path
     d="m 49.371292,76.665636 c 6.907009,0 12.507034,-3.498044 12.507034,-7.812495 0,-11.419914 20.762459,-17.970203 35.456661,-11.390617 6.978143,3.124021 16.841503,1.021972 19.281153,-4.136717 2.7922,-5.905269 11.63311,-10.029778 21.4996,-10.029778 12.3632,0 22.42198,6.283199 22.42198,14.00585 0,4.31445 5.60003,7.812495 12.50704,7.812495 h 17.49265 c 6.90701,0 12.50703,-3.498045 12.50703,-7.812495 0,-4.31445 -5.60002,-7.812495 -12.50703,-7.812495 h -6.65922 C 173.28395,25.307271 121.94727,19.637841 98.908529,40.65394 68.278019,34.457167 36.864257,48.817021 36.864257,68.853141 c 0,4.314451 5.600025,7.812495 12.507035,7.812495 z"
     fill="#a2d0ff"
     id="path22"
     style="stroke-width:0.617806" />
</svg>
